<svg width="1407" height="1648" viewBox="0 0 1407 1648" fill="none" xmlns="http://www.w3.org/2000/svg">
<rect x="13.7344" width="12.6912" height="12.6912" transform="rotate(45 13.7344 0)" fill="#6210A2"/>
<circle cx="14.9338" cy="41.7105" r="6.85143" transform="rotate(36.3205 14.9338 41.7105)" fill="#D9D9D9"/>
<rect x="44.4915" y="21.3431" width="1.6668" height="15.4179" transform="rotate(72.9416 44.4915 21.3431)" fill="#D9D9D9"/>
<rect x="35.2623" y="16.9382" width="1.6668" height="15.4179" transform="rotate(-9.57302 35.2623 16.9382)" fill="#D9D9D9"/>
<path d="M38.3733 48.723L49.7669 61.3789L34.8341 65.3801L38.3733 48.723Z" fill="#6210A2"/>
<rect x="40.3423" y="140.757" width="12.6912" height="12.6912" transform="rotate(-136.617 40.3423 140.757)" fill="#D9D9D9"/>
<circle cx="37.9665" cy="99.0968" r="6.85143" transform="rotate(-145.296 37.9665 99.0968)" fill="#D9D9D9"/>
<rect x="8.99518" y="120.29" width="1.6668" height="15.4179" transform="rotate(-108.675 8.99518 120.29)" fill="#6210A2"/>
<rect x="18.345" y="124.433" width="1.6668" height="15.4179" transform="rotate(168.81 18.345 124.433)" fill="#6210A2"/>
<path d="M14.3384 92.7484L2.59223 80.4191L17.4061 75.9981L14.3384 92.7484Z" fill="#D9D9D9"/>
<rect x="13.7344" y="141.024" width="12.6912" height="12.6912" transform="rotate(45 13.7344 141.024)" fill="#D9D9D9"/>
<circle cx="14.9338" cy="182.734" r="6.85143" transform="rotate(36.3205 14.9338 182.734)" fill="#D9D9D9"/>
<rect x="44.4915" y="162.367" width="1.6668" height="15.4179" transform="rotate(72.9416 44.4915 162.367)" fill="#6210A2"/>
<rect x="35.2623" y="157.962" width="1.6668" height="15.4179" transform="rotate(-9.57302 35.2623 157.962)" fill="#6210A2"/>
<path d="M38.3733 189.747L49.7669 202.403L34.8341 206.404L38.3733 189.747Z" fill="#D9D9D9"/>
<rect x="16.1145" y="211.833" width="12.6912" height="12.6912" transform="rotate(45 16.1145 211.833)" fill="#6210A2"/>
<circle cx="17.3139" cy="253.544" r="6.85143" transform="rotate(36.3205 17.3139 253.544)" fill="#D9D9D9"/>
<rect x="46.8716" y="233.177" width="1.6668" height="15.4179" transform="rotate(72.9416 46.8716 233.177)" fill="#D9D9D9"/>
<rect x="37.6425" y="228.772" width="1.6668" height="15.4179" transform="rotate(-9.57302 37.6425 228.772)" fill="#D9D9D9"/>
<path d="M40.7535 260.556L52.147 273.212L37.2143 277.214L40.7535 260.556Z" fill="#6210A2"/>
<rect x="42.7224" y="352.59" width="12.6912" height="12.6912" transform="rotate(-136.617 42.7224 352.59)" fill="#D9D9D9"/>
<circle cx="40.3466" cy="310.93" r="6.85143" transform="rotate(-145.296 40.3466 310.93)" fill="#D9D9D9"/>
<rect x="11.3754" y="332.123" width="1.6668" height="15.4179" transform="rotate(-108.675 11.3754 332.123)" fill="#6210A2"/>
<rect x="20.7251" y="336.266" width="1.6668" height="15.4179" transform="rotate(168.81 20.7251 336.266)" fill="#6210A2"/>
<path d="M16.7185 304.582L4.97236 292.252L19.7863 287.831L16.7185 304.582Z" fill="#D9D9D9"/>
<rect x="16.1145" y="352.857" width="12.6912" height="12.6912" transform="rotate(45 16.1145 352.857)" fill="#D9D9D9"/>
<circle cx="17.3139" cy="394.568" r="6.85143" transform="rotate(36.3205 17.3139 394.568)" fill="#D9D9D9"/>
<rect x="46.8716" y="374.201" width="1.6668" height="15.4179" transform="rotate(72.9416 46.8716 374.201)" fill="#6210A2"/>
<rect x="37.6425" y="369.796" width="1.6668" height="15.4179" transform="rotate(-9.57302 37.6425 369.796)" fill="#6210A2"/>
<path d="M40.7535 401.58L52.147 414.236L37.2143 418.237L40.7535 401.58Z" fill="#D9D9D9"/>
<rect x="13.7344" y="834.592" width="12.6912" height="12.6912" transform="rotate(45 13.7344 834.592)" fill="#6210A2"/>
<circle cx="14.9338" cy="876.302" r="6.85143" transform="rotate(36.3205 14.9338 876.302)" fill="#D9D9D9"/>
<rect x="44.4915" y="855.935" width="1.6668" height="15.4179" transform="rotate(72.9416 44.4915 855.935)" fill="#D9D9D9"/>
<rect x="35.2623" y="851.53" width="1.6668" height="15.4179" transform="rotate(-9.57302 35.2623 851.53)" fill="#D9D9D9"/>
<path d="M38.3733 883.315L49.7669 895.97L34.8341 899.972L38.3733 883.315Z" fill="#6210A2"/>
<rect x="40.3423" y="975.348" width="12.6912" height="12.6912" transform="rotate(-136.617 40.3423 975.348)" fill="#D9D9D9"/>
<circle cx="37.9665" cy="933.688" r="6.85143" transform="rotate(-145.296 37.9665 933.688)" fill="#D9D9D9"/>
<rect x="8.99518" y="954.881" width="1.6668" height="15.4179" transform="rotate(-108.675 8.99518 954.881)" fill="#6210A2"/>
<rect x="18.345" y="959.024" width="1.6668" height="15.4179" transform="rotate(168.81 18.345 959.024)" fill="#6210A2"/>
<path d="M14.3384 927.34L2.59223 915.011L17.4061 910.59L14.3384 927.34Z" fill="#D9D9D9"/>
<rect x="13.7344" y="975.615" width="12.6912" height="12.6912" transform="rotate(45 13.7344 975.615)" fill="#D9D9D9"/>
<circle cx="14.9338" cy="1017.33" r="6.85143" transform="rotate(36.3205 14.9338 1017.33)" fill="#D9D9D9"/>
<rect x="44.4915" y="996.959" width="1.6668" height="15.4179" transform="rotate(72.9416 44.4915 996.959)" fill="#6210A2"/>
<rect x="35.2623" y="992.554" width="1.6668" height="15.4179" transform="rotate(-9.57302 35.2623 992.554)" fill="#6210A2"/>
<path d="M38.3733 1024.34L49.7669 1036.99L34.8341 1041L38.3733 1024.34Z" fill="#D9D9D9"/>
<rect x="16.1145" y="1046.42" width="12.6912" height="12.6912" transform="rotate(45 16.1145 1046.42)" fill="#6210A2"/>
<circle cx="17.3139" cy="1088.14" r="6.85143" transform="rotate(36.3205 17.3139 1088.14)" fill="#D9D9D9"/>
<rect x="46.8716" y="1067.77" width="1.6668" height="15.4179" transform="rotate(72.9416 46.8716 1067.77)" fill="#D9D9D9"/>
<rect x="37.6425" y="1063.36" width="1.6668" height="15.4179" transform="rotate(-9.57302 37.6425 1063.36)" fill="#D9D9D9"/>
<path d="M40.7535 1095.15L52.147 1107.8L37.2143 1111.8L40.7535 1095.15Z" fill="#6210A2"/>
<rect x="13.7344" y="411.159" width="12.6912" height="12.6912" transform="rotate(45 13.7344 411.159)" fill="#6210A2"/>
<circle cx="14.9338" cy="452.87" r="6.85143" transform="rotate(36.3205 14.9338 452.87)" fill="#D9D9D9"/>
<rect x="44.4915" y="432.502" width="1.6668" height="15.4179" transform="rotate(72.9416 44.4915 432.502)" fill="#D9D9D9"/>
<rect x="35.2623" y="428.097" width="1.6668" height="15.4179" transform="rotate(-9.57302 35.2623 428.097)" fill="#D9D9D9"/>
<path d="M38.3733 459.882L49.7669 472.538L34.8341 476.539L38.3733 459.882Z" fill="#6210A2"/>
<rect x="40.3423" y="551.916" width="12.6912" height="12.6912" transform="rotate(-136.617 40.3423 551.916)" fill="#D9D9D9"/>
<circle cx="37.9665" cy="510.256" r="6.85143" transform="rotate(-145.296 37.9665 510.256)" fill="#D9D9D9"/>
<rect x="8.99518" y="531.449" width="1.6668" height="15.4179" transform="rotate(-108.675 8.99518 531.449)" fill="#6210A2"/>
<rect x="18.345" y="535.592" width="1.6668" height="15.4179" transform="rotate(168.81 18.345 535.592)" fill="#6210A2"/>
<path d="M14.3384 503.907L2.59223 491.578L17.4061 487.157L14.3384 503.907Z" fill="#D9D9D9"/>
<rect x="13.7344" y="552.183" width="12.6912" height="12.6912" transform="rotate(45 13.7344 552.183)" fill="#D9D9D9"/>
<circle cx="14.9338" cy="593.893" r="6.85143" transform="rotate(36.3205 14.9338 593.893)" fill="#D9D9D9"/>
<rect x="44.4915" y="573.526" width="1.6668" height="15.4179" transform="rotate(72.9416 44.4915 573.526)" fill="#6210A2"/>
<rect x="35.2623" y="569.121" width="1.6668" height="15.4179" transform="rotate(-9.57302 35.2623 569.121)" fill="#6210A2"/>
<path d="M38.3733 600.906L49.7669 613.562L34.8341 617.563L38.3733 600.906Z" fill="#D9D9D9"/>
<rect x="16.1145" y="622.992" width="12.6912" height="12.6912" transform="rotate(45 16.1145 622.992)" fill="#6210A2"/>
<circle cx="17.3139" cy="664.703" r="6.85143" transform="rotate(36.3205 17.3139 664.703)" fill="#D9D9D9"/>
<rect x="46.8716" y="644.336" width="1.6668" height="15.4179" transform="rotate(72.9416 46.8716 644.336)" fill="#D9D9D9"/>
<rect x="37.6425" y="639.931" width="1.6668" height="15.4179" transform="rotate(-9.57302 37.6425 639.931)" fill="#D9D9D9"/>
<path d="M40.7535 671.716L52.147 684.371L37.2143 688.373L40.7535 671.716Z" fill="#6210A2"/>
<rect x="42.7224" y="763.749" width="12.6912" height="12.6912" transform="rotate(-136.617 42.7224 763.749)" fill="#D9D9D9"/>
<circle cx="40.3466" cy="722.089" r="6.85143" transform="rotate(-145.296 40.3466 722.089)" fill="#D9D9D9"/>
<rect x="11.3754" y="743.283" width="1.6668" height="15.4179" transform="rotate(-108.675 11.3754 743.283)" fill="#6210A2"/>
<rect x="20.7251" y="747.425" width="1.6668" height="15.4179" transform="rotate(168.81 20.7251 747.425)" fill="#6210A2"/>
<path d="M16.7185 715.741L4.97236 703.411L19.7863 698.991L16.7185 715.741Z" fill="#D9D9D9"/>
<rect x="16.1145" y="764.016" width="12.6912" height="12.6912" transform="rotate(45 16.1145 764.016)" fill="#D9D9D9"/>
<circle cx="17.3139" cy="805.727" r="6.85143" transform="rotate(36.3205 17.3139 805.727)" fill="#D9D9D9"/>
<rect x="46.8716" y="785.359" width="1.6668" height="15.4179" transform="rotate(72.9416 46.8716 785.359)" fill="#6210A2"/>
<rect x="37.6425" y="780.955" width="1.6668" height="15.4179" transform="rotate(-9.57302 37.6425 780.955)" fill="#6210A2"/>
<path d="M40.7535 812.739L52.147 825.395L37.2143 829.397L40.7535 812.739Z" fill="#D9D9D9"/>
<rect x="15.7344" y="1112" width="12.6912" height="12.6912" transform="rotate(45 15.7344 1112)" fill="#D9D9D9"/>
<circle cx="16.9338" cy="1153.71" r="6.85143" transform="rotate(36.3205 16.9338 1153.71)" fill="#6210A2"/>
<rect x="46.4915" y="1133.34" width="1.6668" height="15.4179" transform="rotate(72.9416 46.4915 1133.34)" fill="#D9D9D9"/>
<rect x="37.2623" y="1128.94" width="1.6668" height="15.4179" transform="rotate(-9.57302 37.2623 1128.94)" fill="#D9D9D9"/>
<path d="M40.3733 1160.72L51.7669 1173.38L36.8341 1177.38L40.3733 1160.72Z" fill="#D9D9D9"/>
<rect x="42.3423" y="1252.76" width="12.6912" height="12.6912" transform="rotate(-136.617 42.3423 1252.76)" fill="#D9D9D9"/>
<circle cx="39.9665" cy="1211.1" r="6.85143" transform="rotate(-145.296 39.9665 1211.1)" fill="#6210A2"/>
<rect x="10.9952" y="1232.29" width="1.6668" height="15.4179" transform="rotate(-108.675 10.9952 1232.29)" fill="#D9D9D9"/>
<rect x="20.345" y="1236.43" width="1.6668" height="15.4179" transform="rotate(168.81 20.345 1236.43)" fill="#D9D9D9"/>
<path d="M16.3384 1204.75L4.59223 1192.42L19.4061 1188L16.3384 1204.75Z" fill="#D9D9D9"/>
<rect x="15.7344" y="1253.02" width="12.6912" height="12.6912" transform="rotate(45 15.7344 1253.02)" fill="#6210A2"/>
<circle cx="16.9338" cy="1294.73" r="6.85143" transform="rotate(36.3205 16.9338 1294.73)" fill="#D9D9D9"/>
<rect x="46.4915" y="1274.37" width="1.6668" height="15.4179" transform="rotate(72.9416 46.4915 1274.37)" fill="#D9D9D9"/>
<rect x="37.2623" y="1269.96" width="1.6668" height="15.4179" transform="rotate(-9.57302 37.2623 1269.96)" fill="#D9D9D9"/>
<path d="M40.3733 1301.75L51.7669 1314.4L36.8341 1318.4L40.3733 1301.75Z" fill="#6210A2"/>
<rect x="18.1145" y="1323.83" width="12.6912" height="12.6912" transform="rotate(45 18.1145 1323.83)" fill="#D9D9D9"/>
<circle cx="19.3139" cy="1365.54" r="6.85143" transform="rotate(36.3205 19.3139 1365.54)" fill="#6210A2"/>
<rect x="48.8716" y="1345.18" width="1.6668" height="15.4179" transform="rotate(72.9416 48.8716 1345.18)" fill="#D9D9D9"/>
<rect x="39.6425" y="1340.77" width="1.6668" height="15.4179" transform="rotate(-9.57302 39.6425 1340.77)" fill="#D9D9D9"/>
<path d="M42.7535 1372.56L54.147 1385.21L39.2143 1389.21L42.7535 1372.56Z" fill="#D9D9D9"/>
<rect x="44.7224" y="1464.59" width="12.6912" height="12.6912" transform="rotate(-136.617 44.7224 1464.59)" fill="#D9D9D9"/>
<circle cx="42.3466" cy="1422.93" r="6.85143" transform="rotate(-145.296 42.3466 1422.93)" fill="#6210A2"/>
<rect x="13.3754" y="1444.12" width="1.6668" height="15.4179" transform="rotate(-108.675 13.3754 1444.12)" fill="#D9D9D9"/>
<rect x="22.7251" y="1448.27" width="1.6668" height="15.4179" transform="rotate(168.81 22.7251 1448.27)" fill="#D9D9D9"/>
<path d="M18.7185 1416.58L6.97236 1404.25L21.7863 1399.83L18.7185 1416.58Z" fill="#D9D9D9"/>
<rect x="18.1145" y="1464.86" width="12.6912" height="12.6912" transform="rotate(45 18.1145 1464.86)" fill="#6210A2"/>
<circle cx="19.3139" cy="1506.57" r="6.85143" transform="rotate(36.3205 19.3139 1506.57)" fill="#D9D9D9"/>
<rect x="48.8716" y="1486.2" width="1.6668" height="15.4179" transform="rotate(72.9416 48.8716 1486.2)" fill="#D9D9D9"/>
<rect x="39.6425" y="1481.8" width="1.6668" height="15.4179" transform="rotate(-9.57302 39.6425 1481.8)" fill="#D9D9D9"/>
<path d="M42.7535 1513.58L54.147 1526.24L39.2143 1530.24L42.7535 1513.58Z" fill="#6210A2"/>
<rect x="15.7344" y="1523.16" width="12.6912" height="12.6912" transform="rotate(45 15.7344 1523.16)" fill="#D9D9D9"/>
<circle cx="16.9338" cy="1564.87" r="6.85143" transform="rotate(36.3205 16.9338 1564.87)" fill="#6210A2"/>
<rect x="46.4915" y="1544.5" width="1.6668" height="15.4179" transform="rotate(72.9416 46.4915 1544.5)" fill="#D9D9D9"/>
<rect x="37.2623" y="1540.1" width="1.6668" height="15.4179" transform="rotate(-9.57302 37.2623 1540.1)" fill="#D9D9D9"/>
<path d="M40.3733 1571.88L51.7669 1584.54L36.8341 1588.54L40.3733 1571.88Z" fill="#D9D9D9"/>
<circle cx="39.9665" cy="1622.26" r="6.85143" transform="rotate(-145.296 39.9665 1622.26)" fill="#6210A2"/>
<rect x="10.9952" y="1643.45" width="1.6668" height="15.4179" transform="rotate(-108.675 10.9952 1643.45)" fill="#D9D9D9"/>
<rect x="20.345" y="1647.59" width="1.6668" height="15.4179" transform="rotate(168.81 20.345 1647.59)" fill="#D9D9D9"/>
<path d="M16.3384 1615.91L4.59223 1603.58L19.4061 1599.16L16.3384 1615.91Z" fill="#D9D9D9"/>
<rect x="1391.68" y="1647.92" width="12.6912" height="12.6912" transform="rotate(-134.91 1391.68 1647.92)" fill="#6210A2"/>
<circle cx="1390.55" cy="1606.21" r="6.85143" transform="rotate(-143.589 1390.55 1606.21)" fill="#D9D9D9"/>
<rect x="1360.96" y="1626.53" width="1.6668" height="15.4179" transform="rotate(-106.968 1360.96 1626.53)" fill="#D9D9D9"/>
<rect x="1370.18" y="1630.95" width="1.6668" height="15.4179" transform="rotate(170.517 1370.18 1630.95)" fill="#D9D9D9"/>
<path d="M1367.12 1599.16L1355.75 1586.49L1370.69 1582.51L1367.12 1599.16Z" fill="#6210A2"/>
<rect x="1365.3" y="1507.12" width="12.6912" height="12.6912" transform="rotate(43.4736 1365.3 1507.12)" fill="#D9D9D9"/>
<circle cx="1367.61" cy="1548.79" r="6.85143" transform="rotate(34.794 1367.61 1548.79)" fill="#D9D9D9"/>
<rect x="1396.61" y="1527.64" width="1.6668" height="15.4179" transform="rotate(71.4151 1396.61 1527.64)" fill="#6210A2"/>
<rect x="1387.27" y="1523.48" width="1.6668" height="15.4179" transform="rotate(-11.0995 1387.27 1523.48)" fill="#6210A2"/>
<path d="M1391.23 1555.17L1402.95 1567.52L1388.13 1571.92L1391.23 1555.17Z" fill="#D9D9D9"/>
<rect x="1391.91" y="1506.9" width="12.6912" height="12.6912" transform="rotate(-134.91 1391.91 1506.9)" fill="#D9D9D9"/>
<circle cx="1390.77" cy="1465.18" r="6.85143" transform="rotate(-143.589 1390.77 1465.18)" fill="#D9D9D9"/>
<rect x="1361.18" y="1485.51" width="1.6668" height="15.4179" transform="rotate(-106.968 1361.18 1485.51)" fill="#6210A2"/>
<rect x="1370.4" y="1489.93" width="1.6668" height="15.4179" transform="rotate(170.517 1370.4 1489.93)" fill="#6210A2"/>
<path d="M1367.34 1458.14L1355.97 1445.46L1370.91 1441.48L1367.34 1458.14Z" fill="#D9D9D9"/>
<rect x="1389.64" y="1436.08" width="12.6912" height="12.6912" transform="rotate(-134.91 1389.64 1436.08)" fill="#6210A2"/>
<circle cx="1388.5" cy="1394.37" r="6.85143" transform="rotate(-143.589 1388.5 1394.37)" fill="#D9D9D9"/>
<rect x="1358.91" y="1414.69" width="1.6668" height="15.4179" transform="rotate(-106.968 1358.91 1414.69)" fill="#D9D9D9"/>
<rect x="1368.14" y="1419.11" width="1.6668" height="15.4179" transform="rotate(170.517 1368.14 1419.11)" fill="#D9D9D9"/>
<path d="M1365.08 1387.32L1353.7 1374.65L1368.64 1370.67L1365.08 1387.32Z" fill="#6210A2"/>
<rect x="1363.25" y="1295.29" width="12.6912" height="12.6912" transform="rotate(43.4736 1363.25 1295.29)" fill="#D9D9D9"/>
<circle cx="1365.56" cy="1336.95" r="6.85143" transform="rotate(34.794 1365.56 1336.95)" fill="#D9D9D9"/>
<rect x="1394.57" y="1315.8" width="1.6668" height="15.4179" transform="rotate(71.4151 1394.57 1315.8)" fill="#6210A2"/>
<rect x="1385.22" y="1311.64" width="1.6668" height="15.4179" transform="rotate(-11.0995 1385.22 1311.64)" fill="#6210A2"/>
<path d="M1389.18 1343.33L1400.91 1355.68L1386.09 1360.08L1389.18 1343.33Z" fill="#D9D9D9"/>
<rect x="1389.86" y="1295.06" width="12.6912" height="12.6912" transform="rotate(-134.91 1389.86 1295.06)" fill="#D9D9D9"/>
<circle cx="1388.73" cy="1253.35" r="6.85143" transform="rotate(-143.589 1388.73 1253.35)" fill="#D9D9D9"/>
<rect x="1359.14" y="1273.67" width="1.6668" height="15.4179" transform="rotate(-106.968 1359.14 1273.67)" fill="#6210A2"/>
<rect x="1368.36" y="1278.09" width="1.6668" height="15.4179" transform="rotate(170.517 1368.36 1278.09)" fill="#6210A2"/>
<path d="M1365.3 1246.3L1353.92 1233.62L1368.86 1229.65L1365.3 1246.3Z" fill="#D9D9D9"/>
<rect x="1393" y="813.331" width="12.6912" height="12.6912" transform="rotate(-134.91 1393 813.331)" fill="#6210A2"/>
<circle cx="1391.87" cy="771.618" r="6.85143" transform="rotate(-143.589 1391.87 771.618)" fill="#D9D9D9"/>
<rect x="1362.28" y="791.939" width="1.6668" height="15.4179" transform="rotate(-106.968 1362.28 791.939)" fill="#D9D9D9"/>
<rect x="1371.5" y="796.358" width="1.6668" height="15.4179" transform="rotate(170.517 1371.5 796.358)" fill="#D9D9D9"/>
<path d="M1368.44 764.569L1357.06 751.895L1372 747.917L1368.44 764.569Z" fill="#6210A2"/>
<rect x="1366.61" y="672.532" width="12.6912" height="12.6912" transform="rotate(43.4736 1366.61 672.532)" fill="#D9D9D9"/>
<circle cx="1368.92" cy="714.196" r="6.85143" transform="rotate(34.794 1368.92 714.196)" fill="#D9D9D9"/>
<rect x="1397.93" y="693.048" width="1.6668" height="15.4179" transform="rotate(71.4151 1397.93 693.048)" fill="#6210A2"/>
<rect x="1388.59" y="688.891" width="1.6668" height="15.4179" transform="rotate(-11.0995 1388.59 688.891)" fill="#6210A2"/>
<path d="M1392.54 720.581L1404.27 732.929L1389.45 737.327L1392.54 720.581Z" fill="#D9D9D9"/>
<rect x="1393.22" y="672.307" width="12.6912" height="12.6912" transform="rotate(-134.91 1393.22 672.307)" fill="#D9D9D9"/>
<circle cx="1392.09" cy="630.594" r="6.85143" transform="rotate(-143.589 1392.09 630.594)" fill="#D9D9D9"/>
<rect x="1362.5" y="650.915" width="1.6668" height="15.4179" transform="rotate(-106.968 1362.5 650.915)" fill="#6210A2"/>
<rect x="1371.72" y="655.335" width="1.6668" height="15.4179" transform="rotate(170.517 1371.72 655.335)" fill="#6210A2"/>
<path d="M1368.66 623.545L1357.29 610.871L1372.23 606.893L1368.66 623.545Z" fill="#D9D9D9"/>
<rect x="1390.95" y="601.494" width="12.6912" height="12.6912" transform="rotate(-134.91 1390.95 601.494)" fill="#6210A2"/>
<circle cx="1389.82" cy="559.781" r="6.85143" transform="rotate(-143.589 1389.82 559.781)" fill="#D9D9D9"/>
<rect x="1360.23" y="580.102" width="1.6668" height="15.4179" transform="rotate(-106.968 1360.23 580.102)" fill="#D9D9D9"/>
<rect x="1369.45" y="584.521" width="1.6668" height="15.4179" transform="rotate(170.517 1369.45 584.521)" fill="#D9D9D9"/>
<path d="M1366.39 552.732L1355.02 540.058L1369.96 536.08L1366.39 552.732Z" fill="#6210A2"/>
<rect x="1392.33" y="1236.76" width="12.6912" height="12.6912" transform="rotate(-134.91 1392.33 1236.76)" fill="#6210A2"/>
<circle cx="1391.2" cy="1195.05" r="6.85143" transform="rotate(-143.589 1391.2 1195.05)" fill="#D9D9D9"/>
<rect x="1361.61" y="1215.37" width="1.6668" height="15.4179" transform="rotate(-106.968 1361.61 1215.37)" fill="#D9D9D9"/>
<rect x="1370.83" y="1219.79" width="1.6668" height="15.4179" transform="rotate(170.517 1370.83 1219.79)" fill="#D9D9D9"/>
<path d="M1367.77 1188L1356.4 1175.33L1371.34 1171.35L1367.77 1188Z" fill="#6210A2"/>
<rect x="1365.95" y="1095.96" width="12.6912" height="12.6912" transform="rotate(43.4736 1365.95 1095.96)" fill="#D9D9D9"/>
<circle cx="1368.26" cy="1137.63" r="6.85143" transform="rotate(34.794 1368.26 1137.63)" fill="#D9D9D9"/>
<rect x="1397.26" y="1116.48" width="1.6668" height="15.4179" transform="rotate(71.4151 1397.26 1116.48)" fill="#6210A2"/>
<rect x="1387.92" y="1112.32" width="1.6668" height="15.4179" transform="rotate(-11.0995 1387.92 1112.32)" fill="#6210A2"/>
<path d="M1391.87 1144.01L1403.6 1156.36L1388.78 1160.76L1391.87 1144.01Z" fill="#D9D9D9"/>
<rect x="1392.55" y="1095.74" width="12.6912" height="12.6912" transform="rotate(-134.91 1392.55 1095.74)" fill="#D9D9D9"/>
<circle cx="1391.42" cy="1054.03" r="6.85143" transform="rotate(-143.589 1391.42 1054.03)" fill="#D9D9D9"/>
<rect x="1361.83" y="1074.35" width="1.6668" height="15.4179" transform="rotate(-106.968 1361.83 1074.35)" fill="#6210A2"/>
<rect x="1371.05" y="1078.77" width="1.6668" height="15.4179" transform="rotate(170.517 1371.05 1078.77)" fill="#6210A2"/>
<path d="M1367.99 1046.98L1356.62 1034.3L1371.56 1030.33L1367.99 1046.98Z" fill="#D9D9D9"/>
<rect x="1390.29" y="1024.93" width="12.6912" height="12.6912" transform="rotate(-134.91 1390.29 1024.93)" fill="#6210A2"/>
<circle cx="1389.15" cy="983.213" r="6.85143" transform="rotate(-143.589 1389.15 983.213)" fill="#D9D9D9"/>
<rect x="1359.56" y="1003.53" width="1.6668" height="15.4179" transform="rotate(-106.968 1359.56 1003.53)" fill="#D9D9D9"/>
<rect x="1368.79" y="1007.95" width="1.6668" height="15.4179" transform="rotate(170.517 1368.79 1007.95)" fill="#D9D9D9"/>
<path d="M1365.72 976.164L1354.35 963.49L1369.29 959.512L1365.72 976.164Z" fill="#6210A2"/>
<rect x="1363.9" y="884.127" width="12.6912" height="12.6912" transform="rotate(43.4736 1363.9 884.127)" fill="#D9D9D9"/>
<circle cx="1366.21" cy="925.791" r="6.85143" transform="rotate(34.794 1366.21 925.791)" fill="#D9D9D9"/>
<rect x="1395.22" y="904.643" width="1.6668" height="15.4179" transform="rotate(71.4151 1395.22 904.643)" fill="#6210A2"/>
<rect x="1385.87" y="900.486" width="1.6668" height="15.4179" transform="rotate(-11.0995 1385.87 900.486)" fill="#6210A2"/>
<path d="M1389.83 932.176L1401.56 944.524L1386.73 948.922L1389.83 932.176Z" fill="#D9D9D9"/>
<rect x="1390.51" y="883.902" width="12.6912" height="12.6912" transform="rotate(-134.91 1390.51 883.902)" fill="#D9D9D9"/>
<circle cx="1389.38" cy="842.19" r="6.85143" transform="rotate(-143.589 1389.38 842.19)" fill="#D9D9D9"/>
<rect x="1359.79" y="862.51" width="1.6668" height="15.4179" transform="rotate(-106.968 1359.79 862.51)" fill="#6210A2"/>
<rect x="1369.01" y="866.93" width="1.6668" height="15.4179" transform="rotate(170.517 1369.01 866.93)" fill="#6210A2"/>
<path d="M1365.95 835.14L1354.57 822.466L1369.51 818.489L1365.95 835.14Z" fill="#D9D9D9"/>
<rect x="1391.44" y="535.919" width="12.6912" height="12.6912" transform="rotate(-134.91 1391.44 535.919)" fill="#D9D9D9"/>
<circle cx="1390.3" cy="494.207" r="6.85143" transform="rotate(-143.589 1390.3 494.207)" fill="#6210A2"/>
<rect x="1360.71" y="514.528" width="1.6668" height="15.4179" transform="rotate(-106.968 1360.71 514.528)" fill="#D9D9D9"/>
<rect x="1369.94" y="518.947" width="1.6668" height="15.4179" transform="rotate(170.517 1369.94 518.947)" fill="#D9D9D9"/>
<path d="M1366.88 487.157L1355.5 474.484L1370.44 470.506L1366.88 487.157Z" fill="#D9D9D9"/>
<rect x="1365.05" y="395.121" width="12.6912" height="12.6912" transform="rotate(43.4736 1365.05 395.121)" fill="#D9D9D9"/>
<circle cx="1367.36" cy="436.784" r="6.85143" transform="rotate(34.794 1367.36 436.784)" fill="#6210A2"/>
<rect x="1396.37" y="415.637" width="1.6668" height="15.4179" transform="rotate(71.4151 1396.37 415.637)" fill="#D9D9D9"/>
<rect x="1387.02" y="411.479" width="1.6668" height="15.4179" transform="rotate(-11.0995 1387.02 411.479)" fill="#D9D9D9"/>
<path d="M1390.98 443.17L1402.71 455.518L1387.89 459.916L1390.98 443.17Z" fill="#D9D9D9"/>
<rect x="1391.66" y="394.896" width="12.6912" height="12.6912" transform="rotate(-134.91 1391.66 394.896)" fill="#6210A2"/>
<circle cx="1390.53" cy="353.183" r="6.85143" transform="rotate(-143.589 1390.53 353.183)" fill="#D9D9D9"/>
<rect x="1360.94" y="373.504" width="1.6668" height="15.4179" transform="rotate(-106.968 1360.94 373.504)" fill="#D9D9D9"/>
<rect x="1370.16" y="377.923" width="1.6668" height="15.4179" transform="rotate(170.517 1370.16 377.923)" fill="#D9D9D9"/>
<path d="M1367.1 346.134L1355.73 333.46L1370.66 329.482L1367.1 346.134Z" fill="#6210A2"/>
<rect x="1389.39" y="324.082" width="12.6912" height="12.6912" transform="rotate(-134.91 1389.39 324.082)" fill="#D9D9D9"/>
<circle cx="1388.26" cy="282.37" r="6.85143" transform="rotate(-143.589 1388.26 282.37)" fill="#6210A2"/>
<rect x="1358.67" y="302.691" width="1.6668" height="15.4179" transform="rotate(-106.968 1358.67 302.691)" fill="#D9D9D9"/>
<rect x="1367.89" y="307.11" width="1.6668" height="15.4179" transform="rotate(170.517 1367.89 307.11)" fill="#D9D9D9"/>
<path d="M1364.83 275.32L1353.46 262.647L1368.4 258.669L1364.83 275.32Z" fill="#D9D9D9"/>
<rect x="1363.01" y="183.284" width="12.6912" height="12.6912" transform="rotate(43.4736 1363.01 183.284)" fill="#D9D9D9"/>
<circle cx="1365.32" cy="224.947" r="6.85143" transform="rotate(34.794 1365.32 224.947)" fill="#6210A2"/>
<rect x="1394.32" y="203.8" width="1.6668" height="15.4179" transform="rotate(71.4151 1394.32 203.8)" fill="#D9D9D9"/>
<rect x="1384.98" y="199.643" width="1.6668" height="15.4179" transform="rotate(-11.0995 1384.98 199.643)" fill="#D9D9D9"/>
<path d="M1388.93 231.333L1400.66 243.681L1385.84 248.079L1388.93 231.333Z" fill="#D9D9D9"/>
<rect x="1389.62" y="183.059" width="12.6912" height="12.6912" transform="rotate(-134.91 1389.62 183.059)" fill="#6210A2"/>
<circle cx="1388.48" cy="141.346" r="6.85143" transform="rotate(-143.589 1388.48 141.346)" fill="#D9D9D9"/>
<rect x="1358.89" y="161.667" width="1.6668" height="15.4179" transform="rotate(-106.968 1358.89 161.667)" fill="#D9D9D9"/>
<rect x="1368.11" y="166.086" width="1.6668" height="15.4179" transform="rotate(170.517 1368.11 166.086)" fill="#D9D9D9"/>
<path d="M1365.05 134.297L1353.68 121.623L1368.62 117.645L1365.05 134.297Z" fill="#6210A2"/>
<rect x="1392.09" y="124.761" width="12.6912" height="12.6912" transform="rotate(-134.91 1392.09 124.761)" fill="#D9D9D9"/>
<circle cx="1390.95" cy="83.0485" r="6.85143" transform="rotate(-143.589 1390.95 83.0485)" fill="#6210A2"/>
<rect x="1361.36" y="103.369" width="1.6668" height="15.4179" transform="rotate(-106.968 1361.36 103.369)" fill="#D9D9D9"/>
<rect x="1370.59" y="107.788" width="1.6668" height="15.4179" transform="rotate(170.517 1370.59 107.788)" fill="#D9D9D9"/>
<path d="M1367.53 75.999L1356.15 63.3252L1371.09 59.3475L1367.53 75.999Z" fill="#D9D9D9"/>
<circle cx="1368.01" cy="25.6259" r="6.85143" transform="rotate(34.794 1368.01 25.6259)" fill="#6210A2"/>
<rect x="1397.02" y="4.47833" width="1.6668" height="15.4179" transform="rotate(71.4151 1397.02 4.47833)" fill="#D9D9D9"/>
<rect x="1387.67" y="0.320862" width="1.6668" height="15.4179" transform="rotate(-11.0995 1387.67 0.320862)" fill="#D9D9D9"/>
<path d="M1391.63 32.0115L1403.36 44.3594L1388.54 48.7569L1391.63 32.0115Z" fill="#D9D9D9"/>
</svg>
